<mxfile host="app.diagrams.net" modified="2023-11-06T14:57:23.625Z" agent="Mozilla/5.0 (Windows NT 10.0; Win64; x64) AppleWebKit/537.36 (KHTML, like Gecko) Chrome/118.0.0.0 Safari/537.36" version="22.0.8" etag="ekqpjqamuZhilcbcH_ZX" type="github">
  <diagram name="Page-1" id="VISHUv3gXO4BWrHCf53_">
    <mxGraphModel>
      <root>
        <mxCell id="0" />
        <mxCell id="1" parent="0" />
      </root>
    </mxGraphModel>
  </diagram>
</mxfile>
